<svg width="140" height="27" viewBox="0 0 140 27" fill="none" xmlns="http://www.w3.org/2000/svg">
<path d="M10.9177 4.2494C9.28331 4.2494 8.79299 4.96853 8.79299 6.57023V9.21793H13.1731L12.7482 13.5327H8.79299V26.5751H3.53027V13.5327H0V9.25062H3.53027V6.66829C3.53027 2.28814 5.29541 0 10.1659 0C11.1792 0 12.2252 0.0653754 13.2385 0.196126V4.2494" fill="#004F9D"/>
<path d="M13.5327 17.3572C13.5327 12.5194 15.8208 8.8584 20.6586 8.8584C23.2736 8.8584 24.8753 10.1986 25.6598 11.8984V9.25065H30.6937V26.6078H25.6271V23.9928C24.908 25.6599 23.2409 26.9674 20.6259 26.9674C15.8208 26.9674 13.5 23.3391 13.5 18.4686L13.5327 17.3572ZM18.7954 18.534C18.7954 21.1163 19.7434 22.8487 22.1949 22.8487C24.3523 22.8487 25.431 21.2797 25.431 18.7955V17.0303C25.431 14.5461 24.3196 12.977 22.1949 12.977C19.7434 12.977 18.7954 14.6768 18.7954 17.2918V18.534Z" fill="#004F9D"/>
<path d="M41.6107 8.8584C43.6374 8.8584 45.5986 9.28334 46.6446 10.0352L45.4679 13.7616C44.3892 13.2386 43.1797 12.977 41.9703 12.977C39.1265 12.977 37.8843 14.6114 37.8843 17.4226V18.4359C37.8843 21.247 39.1265 22.8814 41.9703 22.8814C43.1797 22.8814 44.3892 22.5872 45.4679 22.0642L46.6446 25.7906C45.5986 26.5098 43.6701 26.9674 41.6107 26.9674C35.4328 26.9674 32.6543 23.6659 32.6543 18.3378V17.5206C32.6543 12.1925 35.4328 8.8584 41.6107 8.8584Z" fill="#004F9D"/>
<path d="M47.332 18.5666V17.0303C47.332 12.0945 50.1432 8.8584 55.8635 8.8584C61.257 8.8584 63.6432 12.1272 63.6432 16.9649V19.7434H52.5947C52.6928 22.1296 53.7715 23.1756 56.6807 23.1756C58.5766 23.1756 60.4725 22.816 62.2703 22.1296L63.2183 25.7253C61.8454 26.4444 59.0015 27.0001 56.4846 27.0001C49.8163 26.9674 47.332 23.6659 47.332 18.5666ZM52.5947 16.2785H58.9362V15.8536C58.9362 13.9577 58.1843 12.454 55.8635 12.454C53.51 12.454 52.5947 13.9577 52.5947 16.2785Z" fill="#004F9D"/>
<path d="M83.1258 18.4686C83.1258 23.3064 80.8049 26.9674 75.9672 26.9674C73.3522 26.9674 71.5216 25.6599 70.8025 23.9928V26.6078H65.834V0.523058L71.0967 0.0654297V11.6696C71.8485 10.1332 73.5483 8.89111 75.9999 8.89111C80.805 8.89111 83.1585 12.5194 83.1585 17.3899L83.1258 18.4686ZM77.8631 17.2592C77.8631 14.8076 76.9151 12.9771 74.3982 12.9771C72.2408 12.9771 71.0967 14.5134 71.0967 16.9977V18.8282C71.0967 21.3124 72.2735 22.8488 74.3982 22.8488C76.9151 22.8488 77.8631 21.0182 77.8631 18.5667V17.2592Z" fill="#004F9D"/>
<path d="M84.8574 18.3378V17.4553C84.8574 12.454 87.7012 8.8584 93.487 8.8584C99.2727 8.8584 102.117 12.454 102.117 17.4553V18.3378C102.117 23.339 99.2727 26.9347 93.487 26.9347C87.7012 26.9347 84.8574 23.3717 84.8574 18.3378ZM96.8865 17.0957C96.8865 14.8076 95.9385 12.977 93.487 12.977C91.0354 12.977 90.0875 14.8076 90.0875 17.0957V18.7301C90.0875 21.0182 91.0354 22.8487 93.487 22.8487C95.9385 22.8487 96.8865 21.0182 96.8865 18.7301V17.0957Z" fill="#004F9D"/>
<path d="M103.914 18.3378V17.4553C103.914 12.454 106.758 8.8584 112.544 8.8584C118.329 8.8584 121.173 12.454 121.173 17.4553V18.3378C121.173 23.339 118.329 26.9347 112.544 26.9347C106.758 26.9347 103.914 23.3717 103.914 18.3378ZM115.943 17.0957C115.943 14.8076 114.995 12.977 112.544 12.977C110.092 12.977 109.144 14.8076 109.144 17.0957V18.7301C109.144 21.0182 110.092 22.8487 112.544 22.8487C114.995 22.8487 115.943 21.0182 115.943 18.7301V17.0957Z" fill="#004F9D"/>
<path d="M128.398 17.5206L133.595 9.21796H139.152L133.726 17.8148L139.381 26.6078H133.791L128.398 18.109V26.6078H123.168V0.52303L128.398 0.0327148" fill="#004F9D"/>
</svg>
